<?xml version="1.0" encoding="UTF-8" standalone="no"?><!DOCTYPE svg PUBLIC "-//W3C//DTD SVG 1.1//EN" "http://www.w3.org/Graphics/SVG/1.1/DTD/svg11.dtd"><svg width="100%" height="100%" viewBox="0 0 370 185" version="1.1" xmlns="http://www.w3.org/2000/svg" xmlns:xlink="http://www.w3.org/1999/xlink" xml:space="preserve" xmlns:serif="http://www.serif.com/" style="fill-rule:evenodd;clip-rule:evenodd;stroke-linejoin:round;stroke-miterlimit:2;"><rect id="Gold-Logo-Icon" serif:id="Gold Logo Icon" x="-0" y="0" width="370" height="185" style="fill:none;"/><g><g><path id="Icon" d="M181.22,139.723c-16.803,26.012 -47.059,43.382 -81.561,43.382c-52.747,-0 -95.571,-40.599 -95.571,-90.605c-0,-50.006 42.824,-90.605 95.571,-90.605c34.502,0 64.758,17.37 81.561,43.382c-4.516,7.638 -7.972,15.915 -10.176,24.651c-9.971,-28.318 -38.181,-48.755 -71.385,-48.755c-41.525,-0 -75.237,31.96 -75.237,71.327c0,39.367 33.712,71.327 75.237,71.327c33.204,0 61.414,-20.437 71.385,-48.755c2.17,-6.163 3.476,-12.7 3.781,-19.481c0.047,-1.025 0.07,-2.055 0.07,-3.091c0,-1.036 -0.023,-2.066 -0.07,-3.091c0.48,-13.528 4.094,-26.309 10.175,-37.709c1.17,-2.194 2.432,-4.336 3.78,-6.423c16.803,-26.012 47.059,-43.382 81.561,-43.382c52.747,0 95.571,40.599 95.571,90.605c0,50.006 -42.824,90.605 -95.571,90.605c-34.502,-0 -64.758,-17.37 -81.561,-43.382c4.516,-7.638 7.972,-15.915 10.176,-24.651c9.971,28.318 38.181,48.755 71.385,48.755c41.525,0 75.237,-31.96 75.237,-71.327c-0,-39.367 -33.712,-71.327 -75.237,-71.327c-33.204,-0 -61.414,20.437 -71.385,48.755c-2.17,6.163 -3.476,12.7 -3.781,19.481c-0.047,1.025 -0.07,2.055 -0.07,3.091c-0,1.036 0.023,2.066 0.07,3.091c-0.48,13.528 -4.094,26.309 -10.175,37.709c-1.17,2.194 -2.432,4.336 -3.78,6.423Z" style="fill:url(#_Linear1);"/></g></g><defs><linearGradient id="_Linear1" x1="0" y1="0" x2="1" y2="0" gradientUnits="userSpaceOnUse" gradientTransform="matrix(361.824,0,0,181.21,4.08798,92.5)"><stop offset="0" style="stop-color:#ffd133;stop-opacity:1"/><stop offset="1" style="stop-color:#f19d2a;stop-opacity:1"/></linearGradient></defs></svg>